<?xml version="1.0" encoding="utf-8"?>
<!-- Generator: Adobe Illustrator 23.0.4, SVG Export Plug-In . SVG Version: 6.00 Build 0)  -->
<svg version="1.1" id="Laag_1" xmlns="http://www.w3.org/2000/svg" xmlns:xlink="http://www.w3.org/1999/xlink" x="0px" y="0px"
	 viewBox="0 0 437.9 350.3" style="enable-background:new 0 0 437.9 350.3;" xml:space="preserve">
<style type="text/css">
	.st0{fill:#FFFFFF;}
</style>
<g>
	<path d="M356.4,120.9c-19.3,0-38.2,0-57.7,0c0,2.7,0,4.8,0,6.9c0,49.3,0,98.6,0,147.9c0,1.8,0,3.7,0,5.5
		c-0.1,5.6-2.3,10.1-7.6,12.4c-5.2,2.2-9.6,0.7-13.8-2.8c-15.3-13.1-30.6-26.2-46-39.3c-11.8-10.1-23.5-20.1-35.3-30.2
		c-4.9-4.2-6.8-4.2-11.6,0c-26.7,22.8-53.4,45.7-80.2,68.4c-2,1.7-4.2,3.4-6.6,4.3c-6.4,2.3-13.4-1.5-15.3-8.2
		c-0.6-2.2-0.7-4.6-0.7-6.9c0-59.5-0.1-118.9,0-178.4c0-11.1,3.5-21.3,10.2-30.2c7.1-9.5,16.5-14.5,28.7-14.4
		c65.5,0.2,130.9,0.3,196.4-0.1c16.7-0.1,27.2,8.1,34.2,22.1C357.7,91.4,356.5,105.9,356.4,120.9z M285,279.6c0-3.6,0-5.7,0-7.8
		c0-51.8,0.1-103.6-0.1-155.5c-0.1-16.1-0.4-32.1,10.3-46.5c-2.6-0.1-4.2-0.3-5.8-0.3c-56.3,0-112.6,0.1-169-0.1
		c-8.3,0-14,3.4-18.4,9.9c-5.2,7.6-7,16.1-7,25.1c0,56.5,0,113,0,169.5c0,1.5,0,3,0,5.5c2.2-1.8,3.4-2.6,4.5-3.6
		c25.1-21.5,50.1-42.9,75.1-64.4c10.8-9.3,19.7-9.3,30.7,0.1c14,12,28.1,24.1,42.1,36.1C259.7,257.9,271.8,268.3,285,279.6z
		 M298.9,107.1c14.1,0,27.5,0.1,40.9-0.1c1,0,2.8-1.9,2.9-2.9c0.1-11-2.3-21.2-10.3-29.2c-7.4-7.5-16.9-7.2-24.1,0.6
		C300.4,84.3,298.1,94.9,298.9,107.1z"/>
	<path class="st0" d="M285,279.6c-13.2-11.3-25.3-21.7-37.5-32c-14-12-28.1-24.1-42.1-36.1c-10.9-9.4-19.8-9.4-30.7-0.1
		c-25,21.5-50.1,42.9-75.1,64.4c-1.1,1-2.3,1.9-4.5,3.6c0-2.5,0-4,0-5.5c0-56.5,0-113,0-169.5c0-9,1.8-17.6,7-25.1
		c4.4-6.4,10.2-9.9,18.4-9.9c56.3,0.2,112.6,0.1,169,0.1c1.6,0,3.2,0.1,5.8,0.3c-10.7,14.4-10.4,30.4-10.3,46.5
		c0.2,51.8,0.1,103.6,0.1,155.5C285,273.9,285,276,285,279.6z"/>
	<path class="st0" d="M298.9,107.1c-0.8-12.3,1.5-22.9,9.5-31.6c7.1-7.9,16.7-8.1,24.1-0.6c8,8.1,10.4,18.3,10.3,29.2
		c0,1-1.8,2.9-2.9,2.9C326.4,107.2,312.9,107.1,298.9,107.1z"/>
</g>
</svg>
